<?xml version="1.0" encoding="UTF-8" standalone="no"?>
<svg width="1024" height="1024" viewBox="0 0 1024 1024" fill="none" xmlns="http://www.w3.org/2000/svg">
  <!-- Gradient Background -->
  <defs>
    <linearGradient id="bgGradient" x1="0%" y1="0%" x2="100%" y2="100%">
      <stop offset="0%" stop-color="#7B1FA2" />
      <stop offset="100%" stop-color="#6200EE" />
    </linearGradient>
    <filter id="shadow" x="-10%" y="-10%" width="120%" height="120%">
      <feDropShadow dx="0" dy="10" stdDeviation="15" flood-opacity="0.3" />
    </filter>
    <linearGradient id="timerGradient" x1="0%" y1="0%" x2="100%" y2="100%">
      <stop offset="0%" stop-color="#FF4081" />
      <stop offset="100%" stop-color="#F50057" />
    </linearGradient>
  </defs>
  
  <!-- Background with rounded corners -->
  <rect width="1024" height="1024" rx="240" fill="url(#bgGradient)" />
  
  <!-- Paper background with shadow -->
  <rect x="212" y="162" width="600" height="700" rx="40" fill="white" filter="url(#shadow)" />
  
  <!-- Task lines with subtle gradient -->
  <rect x="262" y="262" width="500" height="4" rx="2" fill="#E0E0E0" />
  <rect x="262" y="362" width="500" height="4" rx="2" fill="#E0E0E0" />
  <rect x="262" y="462" width="500" height="4" rx="2" fill="#E0E0E0" />
  <rect x="262" y="562" width="500" height="4" rx="2" fill="#E0E0E0" />
  <rect x="262" y="662" width="500" height="4" rx="2" fill="#E0E0E0" />
  
  <!-- Checkmark circles with subtle shadow -->
  <circle cx="312" cy="232" r="30" fill="#6200EE" stroke="white" stroke-width="6" />
  <circle cx="312" cy="332" r="30" fill="#E0E0E0" />
  <circle cx="312" cy="432" r="30" fill="#6200EE" stroke="white" stroke-width="6" />
  <circle cx="312" cy="532" r="30" fill="#E0E0E0" />
  <circle cx="312" cy="632" r="30" fill="#6200EE" stroke="white" stroke-width="6" />
  
  <!-- Animated-style checkmarks -->
  <path d="M295 232 L305 242 L330 217" stroke="white" stroke-width="8" stroke-linecap="round" stroke-linejoin="round" />
  <path d="M295 432 L305 442 L330 417" stroke="white" stroke-width="8" stroke-linecap="round" stroke-linejoin="round" />
  <path d="M295 632 L305 642 L330 617" stroke="white" stroke-width="8" stroke-linecap="round" stroke-linejoin="round" />
  
  <!-- Task text lines with more modern look -->
  <rect x="362" y="222" width="350" height="20" rx="10" fill="#333333" opacity="0.9" />
  <rect x="362" y="322" width="300" height="20" rx="10" fill="#BBBBBB" opacity="0.7" />
  <rect x="362" y="422" width="380" height="20" rx="10" fill="#333333" opacity="0.9" />
  <rect x="362" y="522" width="320" height="20" rx="10" fill="#BBBBBB" opacity="0.7" />
  <rect x="362" y="622" width="340" height="20" rx="10" fill="#333333" opacity="0.9" />
  
  <!-- Timer icon for Pomodoro with gradient -->
  <circle cx="762" cy="762" r="100" fill="url(#timerGradient)" />
  <circle cx="762" cy="762" r="80" fill="white" />
  <rect x="760" y="692" width="4" height="70" rx="2" fill="#333333" />
  <rect x="762" y="760" width="50" height="4" rx="2" fill="#333333" />
  
  <!-- Subtle decorative elements -->
  <circle cx="512" cy="900" r="30" fill="white" opacity="0.1" />
  <circle cx="562" cy="900" r="20" fill="white" opacity="0.1" />
  <circle cx="462" cy="900" r="20" fill="white" opacity="0.1" />
</svg>